<?xml version="1.0" encoding="utf-8"?>
<!-- Generator: Adobe Illustrator 15.0.0, SVG Export Plug-In . SVG Version: 6.00 Build 0)  -->
<!DOCTYPE svg PUBLIC "-//W3C//DTD SVG 1.1//EN" "http://www.w3.org/Graphics/SVG/1.1/DTD/svg11.dtd">
<svg version="1.1" xmlns="http://www.w3.org/2000/svg" xmlns:xlink="http://www.w3.org/1999/xlink" x="0px" y="0px" width="180px"
	 height="180px" viewBox="0 0 180 180" enable-background="new 0 0 180 180" xml:space="preserve">
<g id="base" display="none">
	<polygon display="inline" fill="#414042" points="62.947,173.631 18.852,141.595 2.009,89.759 18.852,37.922 62.947,5.885 
		117.45,5.885 161.544,37.922 178.388,89.759 161.544,141.595 117.45,173.631 	"/>
	<circle display="inline" stroke="#282829" stroke-width="5" stroke-miterlimit="10" cx="89.764" cy="89.842" r="70.168"/>
	<g display="inline">
		<path fill="none" stroke="#FFFFFF" stroke-width="1.5" stroke-miterlimit="10" d="M51.664,37.189"/>
		<path fill="none" stroke="#FFFFFF" stroke-width="1.5" stroke-miterlimit="10" d="M128.438,142.855"/>
		
			<line fill="none" stroke="#FFFFFF" stroke-width="0.5" stroke-miterlimit="10" x1="134.755" y1="137.627" x2="45.344" y2="42.417"/>
		
			<line fill="none" stroke="#FFFFFF" stroke-width="0.5" stroke-miterlimit="10" x1="140.369" y1="131.649" x2="39.729" y2="48.395"/>
		
			<line fill="none" stroke="#FFFFFF" stroke-width="0.5" stroke-miterlimit="10" x1="145.189" y1="125.015" x2="34.908" y2="55.03"/>
		
			<line fill="none" stroke="#FFFFFF" stroke-width="0.5" stroke-miterlimit="10" x1="149.14" y1="117.828" x2="30.957" y2="62.218"/>
		<path fill="none" stroke="#FFFFFF" stroke-width="1.5" stroke-miterlimit="10" d="M27.938,69.843"/>
		<path fill="none" stroke="#FFFFFF" stroke-width="1.5" stroke-miterlimit="10" d="M152.16,110.203"/>
		
			<line fill="none" stroke="#FFFFFF" stroke-width="0.5" stroke-miterlimit="10" x1="121.515" y1="147.249" x2="58.588" y2="32.794"/>
		<line fill="none" stroke="#FFFFFF" stroke-width="0.5" stroke-miterlimit="10" x1="154.2" y1="102.259" x2="25.898" y2="77.787"/>
		<line fill="none" stroke="#FFFFFF" stroke-width="0.5" stroke-miterlimit="10" x1="155.227" y1="94.121" x2="24.87" y2="85.923"/>
		<line fill="none" stroke="#FFFFFF" stroke-width="0.5" stroke-miterlimit="10" x1="155.227" y1="85.919" x2="24.87" y2="94.124"/>
		<path fill="none" stroke="#FFFFFF" stroke-miterlimit="10" d="M27.938,110.204"/>
		<path fill="none" stroke="#FFFFFF" stroke-miterlimit="10" d="M152.16,69.838"/>
		<line fill="none" stroke="#FFFFFF" stroke-width="0.5" stroke-miterlimit="10" x1="154.2" y1="77.782" x2="25.898" y2="102.26"/>
		
			<line fill="none" stroke="#FFFFFF" stroke-width="0.5" stroke-miterlimit="10" x1="149.14" y1="62.213" x2="30.957" y2="117.829"/>
		
			<line fill="none" stroke="#FFFFFF" stroke-width="0.5" stroke-miterlimit="10" x1="145.189" y1="55.026" x2="34.908" y2="125.016"/>
		
			<line fill="none" stroke="#FFFFFF" stroke-width="0.5" stroke-miterlimit="10" x1="140.367" y1="48.392" x2="39.729" y2="131.651"/>
		
			<line fill="none" stroke="#FFFFFF" stroke-width="0.5" stroke-miterlimit="10" x1="134.751" y1="42.414" x2="45.342" y2="137.63"/>
		<path fill="none" stroke="#FFFFFF" stroke-width="0.5" stroke-miterlimit="10" d="M51.66,142.858"/>
		
			<line fill="none" stroke="#FFFFFF" stroke-width="0.5" stroke-miterlimit="10" x1="121.506" y1="32.793" x2="58.583" y2="147.254"/>
		
			<line fill="none" stroke="#FFFFFF" stroke-width="0.5" stroke-miterlimit="10" x1="114.085" y1="29.303" x2="66.004" y2="150.747"/>
		
			<line fill="none" stroke="#FFFFFF" stroke-width="0.5" stroke-miterlimit="10" x1="106.286" y1="26.768" x2="73.804" y2="153.281"/>
		<line fill="none" stroke="#FFFFFF" stroke-width="0.5" stroke-miterlimit="10" x1="98.23" y1="25.231" x2="81.859" y2="154.818"/>
		
			<line fill="none" stroke="#FFFFFF" stroke-width="0.5" stroke-miterlimit="10" x1="66.006" y1="29.306" x2="114.083" y2="150.75"/>
		<path fill="none" stroke="#FFFFFF" stroke-width="0.5" stroke-miterlimit="10" d="M90.044,155.333"/>
		<path fill="none" stroke="#FFFFFF" stroke-width="0.5" stroke-miterlimit="10" d="M90.046,24.718"/>
		<line fill="none" stroke="#FFFFFF" stroke-width="0.5" stroke-miterlimit="10" x1="98.238" y1="154.823" x2="81.873" y2="25.23"/>
		
			<line fill="none" stroke="#FFFFFF" stroke-width="0.5" stroke-miterlimit="10" x1="73.806" y1="26.771" x2="106.284" y2="153.284"/>
	</g>
	<circle display="inline" cx="89.874" cy="89.501" r="59.646"/>
	<g display="inline">
		
			<line fill="none" stroke="#FFFFFF" stroke-width="1.5" stroke-miterlimit="10" x1="128.392" y1="142.671" x2="51.618" y2="37.005"/>
		<path fill="none" stroke="#FFFFFF" stroke-width="1.5" stroke-miterlimit="10" d="M45.298,42.233"/>
		<path fill="none" stroke="#FFFFFF" stroke-width="1.5" stroke-miterlimit="10" d="M134.71,137.443"/>
		<path fill="none" stroke="#FFFFFF" stroke-width="1.5" stroke-miterlimit="10" d="M39.683,48.211"/>
		<path fill="none" stroke="#FFFFFF" stroke-width="1.5" stroke-miterlimit="10" d="M140.323,131.465"/>
		<path fill="none" stroke="#FFFFFF" stroke-width="1.5" stroke-miterlimit="10" d="M34.862,54.846"/>
		<path fill="none" stroke="#FFFFFF" stroke-width="1.5" stroke-miterlimit="10" d="M145.144,124.831"/>
		<path fill="none" stroke="#FFFFFF" stroke-width="1.5" stroke-miterlimit="10" d="M30.912,62.034"/>
		<path fill="none" stroke="#FFFFFF" stroke-width="1.5" stroke-miterlimit="10" d="M149.094,117.645"/>
		
			<line fill="none" stroke="#FFFFFF" stroke-width="1.5" stroke-miterlimit="10" x1="152.114" y1="110.019" x2="27.892" y2="69.66"/>
		<path fill="none" stroke="#FFFFFF" stroke-width="1.5" stroke-miterlimit="10" d="M58.543,32.611"/>
		<path fill="none" stroke="#FFFFFF" stroke-width="1.5" stroke-miterlimit="10" d="M121.469,147.065"/>
		<path fill="none" stroke="#FFFFFF" stroke-width="1.5" stroke-miterlimit="10" d="M25.853,77.604"/>
		<path fill="none" stroke="#FFFFFF" stroke-width="1.5" stroke-miterlimit="10" d="M154.155,102.075"/>
		<path fill="none" stroke="#FFFFFF" stroke-width="1.5" stroke-miterlimit="10" d="M24.825,85.74"/>
		<path fill="none" stroke="#FFFFFF" stroke-width="1.5" stroke-miterlimit="10" d="M155.182,93.938"/>
		<path fill="none" stroke="#FFFFFF" stroke-width="1.5" stroke-miterlimit="10" d="M24.825,93.94"/>
		<path fill="none" stroke="#FFFFFF" stroke-width="1.5" stroke-miterlimit="10" d="M155.182,85.736"/>
		
			<line fill="none" stroke="#FFFFFF" stroke-width="1.5" stroke-miterlimit="10" x1="152.114" y1="69.655" x2="27.892" y2="110.02"/>
		<path fill="none" stroke="#FFFFFF" stroke-width="1.5" stroke-miterlimit="10" d="M25.853,102.077"/>
		<path fill="none" stroke="#FFFFFF" stroke-width="1.5" stroke-miterlimit="10" d="M154.155,77.599"/>
		<path fill="none" stroke="#FFFFFF" stroke-width="1.5" stroke-miterlimit="10" d="M30.912,117.646"/>
		<path fill="none" stroke="#FFFFFF" stroke-width="1.5" stroke-miterlimit="10" d="M149.094,62.029"/>
		<path fill="none" stroke="#FFFFFF" stroke-width="1.5" stroke-miterlimit="10" d="M34.862,124.832"/>
		<path fill="none" stroke="#FFFFFF" stroke-width="1.5" stroke-miterlimit="10" d="M145.144,54.842"/>
		<path fill="none" stroke="#FFFFFF" stroke-width="1.5" stroke-miterlimit="10" d="M39.683,131.467"/>
		<path fill="none" stroke="#FFFFFF" stroke-width="1.5" stroke-miterlimit="10" d="M140.321,48.208"/>
		<path fill="none" stroke="#FFFFFF" stroke-width="1.5" stroke-miterlimit="10" d="M45.296,137.446"/>
		<path fill="none" stroke="#FFFFFF" stroke-width="1.5" stroke-miterlimit="10" d="M134.706,42.23"/>
		
			<line fill="none" stroke="#FFFFFF" stroke-width="1.5" stroke-miterlimit="10" x1="128.386" y1="37.003" x2="51.614" y2="142.675"/>
		<path fill="none" stroke="#FFFFFF" stroke-width="1.5" stroke-miterlimit="10" d="M58.538,147.07"/>
		<path fill="none" stroke="#FFFFFF" stroke-width="1.5" stroke-miterlimit="10" d="M121.46,32.61"/>
		<path fill="none" stroke="#FFFFFF" stroke-width="1.5" stroke-miterlimit="10" d="M65.959,150.563"/>
		<path fill="none" stroke="#FFFFFF" stroke-width="1.5" stroke-miterlimit="10" d="M114.04,29.119"/>
		<path fill="none" stroke="#FFFFFF" stroke-width="1.5" stroke-miterlimit="10" d="M73.758,153.098"/>
		<path fill="none" stroke="#FFFFFF" stroke-width="1.5" stroke-miterlimit="10" d="M106.24,26.584"/>
		<path fill="none" stroke="#FFFFFF" stroke-width="1.5" stroke-miterlimit="10" d="M81.814,154.634"/>
		<path fill="none" stroke="#FFFFFF" stroke-width="1.5" stroke-miterlimit="10" d="M98.185,25.048"/>
		<path fill="none" stroke="#FFFFFF" stroke-width="1.5" stroke-miterlimit="10" d="M114.038,150.567"/>
		<path fill="none" stroke="#FFFFFF" stroke-width="1.5" stroke-miterlimit="10" d="M65.961,29.122"/>
		<line fill="none" stroke="#FFFFFF" stroke-width="1.5" stroke-miterlimit="10" x1="90" y1="24.534" x2="89.999" y2="155.15"/>
		<path fill="none" stroke="#FFFFFF" stroke-width="1.5" stroke-miterlimit="10" d="M81.828,25.047"/>
		<path fill="none" stroke="#FFFFFF" stroke-width="1.5" stroke-miterlimit="10" d="M98.192,154.639"/>
		<path fill="none" stroke="#FFFFFF" stroke-width="1.5" stroke-miterlimit="10" d="M106.238,153.101"/>
		<path fill="none" stroke="#FFFFFF" stroke-width="1.5" stroke-miterlimit="10" d="M73.76,26.587"/>
	</g>
	<circle display="inline" cx="89.835" cy="89.449" r="57.706"/>
	<g display="inline">
		<circle cx="115" cy="166.935" r="3"/>
		<line fill="none" stroke="#383839" stroke-miterlimit="10" x1="112.951" y1="169.127" x2="117.048" y2="164.743"/>
		<line fill="none" stroke="#383839" stroke-miterlimit="10" x1="112.808" y1="164.887" x2="117.191" y2="168.984"/>
	</g>
	<g display="inline">
		<circle cx="64.941" cy="12.576" r="3"/>
		<line fill="none" stroke="#383839" stroke-miterlimit="10" x1="62.126" y1="11.538" x2="67.755" y2="13.615"/>
		<line fill="none" stroke="#383839" stroke-miterlimit="10" x1="65.979" y1="9.762" x2="63.902" y2="15.391"/>
	</g>
	<g display="inline">
		<circle cx="65.959" cy="166.936" r="3"/>
		<line fill="none" stroke="#383839" stroke-miterlimit="10" x1="64.616" y1="169.619" x2="67.301" y2="164.252"/>
		<line fill="none" stroke="#383839" stroke-miterlimit="10" x1="63.275" y1="165.593" x2="68.642" y2="168.278"/>
	</g>
	<g display="inline">
		<circle cx="115.11" cy="12.576" r="3"/>
		<line fill="none" stroke="#383839" stroke-miterlimit="10" x1="113.062" y1="14.768" x2="117.159" y2="10.384"/>
		<line fill="none" stroke="#383839" stroke-miterlimit="10" x1="112.918" y1="10.528" x2="117.302" y2="14.625"/>
	</g>
	<g display="inline">
		<circle cx="9.43" cy="89.482" r="3"/>
		<line fill="none" stroke="#383839" stroke-miterlimit="10" x1="6.636" y1="90.574" x2="12.224" y2="88.39"/>
		<line fill="none" stroke="#383839" stroke-miterlimit="10" x1="8.337" y1="86.688" x2="10.522" y2="92.276"/>
	</g>
	<g display="inline">
		<circle cx="171.137" cy="90.202" r="3"/>
		<line fill="none" stroke="#383839" stroke-miterlimit="10" x1="168.799" y1="88.322" x2="173.475" y2="92.082"/>
		<line fill="none" stroke="#383839" stroke-miterlimit="10" x1="173.017" y1="87.864" x2="169.257" y2="92.54"/>
	</g>
</g>
<g id="_x31_0_000_bottom">
	<path fill="#FFF200" d="M111.819,117.831c-6.023,4.689-13.597,7.482-21.821,7.482c-8.333,0-15.996-2.866-22.057-7.667
		l21.894-28.159L111.819,117.831z"/>
	<circle cx="89.802" cy="89.759" r="20.08"/>
	<polyline fill="#FFFFFF" points="82.172,23.436 97.679,23.436 89.913,33.079 	"/>
	<path d="M95.171,103.081l22.787,22.787l-2.933,0.684l-22.63-22.63l3.243,0.072 M89.551,103.993l-3.243-0.072l22.63,22.63
		l2.932-0.684l-22.787-22.787 M83.464,103.993l-3.243-0.072l22.631,22.63l2.932-0.684l-22.787-22.787 M77.378,103.993l-3.243-0.072
		l22.63,22.63l2.933-0.684L76.91,103.081 M71.291,103.993l-3.243-0.072l22.63,22.63l2.933-0.684l-22.787-22.787 M65.205,103.993
		l-3.243-0.072l22.631,22.63l2.932-0.684l-22.787-22.787 M101.725,103.993l-3.243-0.072l22.63,22.63l2.933-0.684l-22.787-22.787
		 M59.118,103.993l-3.243-0.072l22.631,22.63l2.932-0.684L58.65,103.081 M53.031,103.993l-3.243-0.072l22.63,22.63l2.933-0.684
		l-22.787-22.787"/>
</g>
<g id="_x31_0_000_top" display="none">
	<polygon display="inline" points="89.88,89.456 73.713,128.969 41.211,104.909 37.428,73.255 58.679,47.804 84.246,39.911 
		114.04,47.12 128.386,62.204 136.461,69.843 138.461,84.159 136.961,103.081 128.386,114.816 107.156,130.549 	"/>
</g>
<g id="text" display="none">
	<g display="inline">
		<g>
			<path fill="#FFFFFF" d="M91.387,35.244c0.475,0.076,1.03,0.301,1.667,0.674s1.089,0.882,1.356,1.526s0.432,1.239,0.492,1.784
				s0.094,1.137,0.1,1.775s-0.07,1.274-0.229,1.907s-0.497,1.236-1.017,1.811c-1.25,1.281-2.838,1.672-4.764,1.172
				c-1.816-0.738-2.766-2.209-2.848-4.412c-0.02-0.07-0.035-0.359-0.047-0.867s0.027-1.011,0.117-1.509s0.262-1.022,0.516-1.573
				s0.563-0.984,0.929-1.301s0.721-0.553,1.066-0.709s0.757-0.261,1.233-0.313S90.912,35.167,91.387,35.244z M90.165,37.186
				c-1.703,0.449-2.404,1.986-2.104,4.611c0.215,1.285,0.812,2.053,1.793,2.303c0.594,0.246,1.219,0.193,1.875-0.158
				c0.605-0.379,0.964-0.922,1.075-1.629s0.167-1.3,0.167-1.778s-0.104-1.128-0.313-1.948S91.618,37.299,90.165,37.186z"/>
		</g>
		<g>
			<path fill="#FFFFFF" d="M116.716,43.562h2.027v10.635v0.275h-1.213h-0.123l-0.076-0.076c-0.008,0.027-0.033,0.053-0.076,0.076
				h-0.551L116.716,43.562z"/>
		</g>
		<g>
			<path fill="#FFFFFF" d="M133.971,69.425c1.457-1.57,3.227-1.801,5.309-0.691c0.383,0.344,0.594,0.607,0.633,0.791
				c1.23,1.762,1.031,3.477-0.598,5.145l-1.857,2.256h3.322l-0.018,2.104l-7.693-0.012l4.939-6.012
				c0.621-0.5,0.754-1.158,0.398-1.975c-0.406-0.789-1.105-1.08-2.098-0.873c-0.812,0.414-1.156,1.1-1.031,2.057l-1.904,0.439
				c-0.188-0.391-0.252-0.84-0.193-1.348C133.25,70.568,133.514,69.941,133.971,69.425z"/>
		</g>
		<g>
			<path fill="#FFFFFF" d="M141.122,97.642l-1.893,3.785c1.609,1.035,2.188,2.439,1.734,4.213c-0.07,0.301-0.168,0.585-0.293,0.853
				s-0.327,0.546-0.606,0.835s-0.663,0.582-1.151,0.879c-2.195,0.789-3.994,0.17-5.396-1.857l-0.059-0.158l1.793-0.826
				c0.273,0.535,0.707,0.877,1.301,1.025c0.625,0.27,1.229,0.164,1.811-0.316c0.922-1.02,0.883-2.004-0.117-2.953
				c-0.625-0.336-1.32-0.375-2.086-0.117l1.652-3.311h-3.504l-0.018-2.051H141.122z"/>
		</g>
		<g>
			<path fill="#FFFFFF" d="M121.677,120.984l1.957,0.012l0.018,6.867h1.225v1.857l-1.236-0.018l-0.006,2.15l-1.951-0.012v-2.133
				l-5.994,0.006L121.677,120.984z M121.688,124.605l-2.256,3.27h2.244L121.688,124.605z"/>
		</g>
		<g>
			<path fill="#FFFFFF" d="M93.403,130.902v2.068h-3.961l-0.182,1.184c1.719-0.074,2.98,0.498,3.785,1.717
				c0.973,1.281,1.014,2.68,0.123,4.195c-0.762,1.117-1.867,1.689-3.316,1.717c-1.387-0.043-2.51-0.693-3.369-1.951l1.717-0.826
				c0.496,0.82,1.283,1.135,2.361,0.943c1.238-0.582,1.594-1.527,1.066-2.836c-0.113-0.312-0.291-0.543-0.533-0.691
				c-1.215-0.594-2.654-0.541-4.318,0.158l0.979-5.678H93.403z"/>
		</g>
		<g>
			<path fill="#FFFFFF" d="M60.288,121.664h3.334c-0.984,0.578-1.725,1.13-2.221,1.655s-0.969,1.224-1.418,2.095
				c2.875-0.402,4.459,0.75,4.752,3.457c-0.004,1.145-0.473,2.084-1.406,2.818c-1.082,0.934-2.393,1.109-3.932,0.527
				c-1.297-0.781-2.02-2.014-2.168-3.697c0.051-1.777,0.656-3.613,1.816-5.508c0.297-0.426,0.574-0.756,0.832-0.99
				S60.272,121.667,60.288,121.664z M59.216,128.033c-0.035,0.434-0.027,0.799,0.023,1.096s0.245,0.649,0.583,1.058
				s0.81,0.518,1.415,0.328s1.002-0.471,1.189-0.844s0.157-0.811-0.091-1.312s-0.706-0.779-1.374-0.832
				S59.712,127.642,59.216,128.033z"/>
		</g>
		<g>
			<path fill="#FFFFFF" d="M40.009,100.918h7.488l-5.162,10.846h-2.326l4.359-8.836h-4.359V100.918z"/>
		</g>
		<g>
			<path fill="#FFFFFF" d="M45.289,69.508c0.68,1.223,0.58,2.479-0.299,3.768c0.715,0.562,1.125,1.359,1.23,2.391
				c-0.227,2.105-1.283,3.211-3.17,3.316c-1.848,0.152-3.092-0.705-3.732-2.572c-0.172-1.16,0.189-2.18,1.084-3.059
				c-0.219-0.27-0.406-0.518-0.562-0.744c-0.48-1.148-0.381-2.193,0.299-3.135c0.402-0.645,1.012-1.08,1.828-1.307
				C43.298,67.986,44.406,68.434,45.289,69.508z M41.931,74.096c-0.637,0.684-0.906,1.274-0.809,1.772s0.349,0.895,0.753,1.189
				s0.97,0.315,1.696,0.062l0.275-0.141c0.527-0.445,0.717-0.933,0.568-1.462s-0.392-0.882-0.729-1.058S42.763,74.162,41.931,74.096
				z M42.453,69.918c-0.719,0.18-1.092,0.666-1.119,1.459c0.203,0.867,0.875,1.24,2.016,1.119c0.523-0.574,0.66-1.234,0.41-1.98
				C43.435,70.141,43,69.941,42.453,69.918z"/>
		</g>
		<g>
			<path fill="#FFFFFF" d="M60.824,44.191c2.258-0.023,3.67,1.143,4.236,3.498c0.055,0.23,0.071,0.563,0.05,0.999
				s-0.087,0.87-0.196,1.304s-0.228,0.827-0.354,1.181s-0.282,0.723-0.466,1.107s-0.376,0.739-0.577,1.063s-0.438,0.626-0.709,0.905
				s-0.595,0.56-0.97,0.841h-3.34c0.797-0.535,1.484-1.017,2.062-1.444s1.158-1.079,1.74-1.954
				c-0.254,0.039-0.551,0.057-0.891,0.053s-0.73-0.06-1.172-0.167s-0.982-0.419-1.623-0.935c-0.785-0.871-1.135-1.947-1.049-3.229
				c0.152-0.965,0.562-1.729,1.228-2.294S60.136,44.246,60.824,44.191z M60.941,46.095c-1.125,0.297-1.617,1.061-1.477,2.291
				c0.484,1.277,1.443,1.719,2.877,1.324c0.258-0.066,0.518-0.223,0.779-0.469c0.188-0.934-0.008-1.814-0.586-2.643
				C62.082,46.287,61.55,46.119,60.941,46.095z"/>
		</g>
	</g>
	<g display="inline">
		<path fill="#FFFFFF" d="M57.42,83.392h2.145l3.885,10.84h-2.027l-0.885-2.449L56.494,91.8l-0.873,2.49h-1.969L57.42,83.392z
			 M58.463,86.233l-1.271,3.592h2.607L58.463,86.233z"/>
		<path fill="#FFFFFF" d="M64.853,83.392h1.975l-0.018,8.924l4.963,0.018v1.91l-6.932,0.012L64.853,83.392z"/>
		<path fill="#FFFFFF" d="M80.354,83.38v1.986h-3.123v8.877h-2.045v-8.877h-3.164V83.38H80.354z"/>
	</g>
</g>
<g id="_x31_00s_hand" display="none">
	<polygon display="inline" fill="#FFFFFF" points="87.186,77.609 92.947,77.609 95.561,56.338 90.041,49.286 84.448,56.447 	"/>
</g>
<g id="_x31_0s_hand" display="none">
	<polygon display="inline" fill="#FFFFFF" stroke="#000000" stroke-width="0.5" stroke-miterlimit="10" points="88.098,78.976 
		91.432,78.971 91.432,38.845 89.856,32.543 88.098,38.845 	"/>
</g>
</svg>
