<?xml version="1.0" encoding="utf-8"?>
<!-- Generator: Adobe Illustrator 15.0.0, SVG Export Plug-In . SVG Version: 6.00 Build 0)  -->
<!DOCTYPE svg PUBLIC "-//W3C//DTD SVG 1.1//EN" "http://www.w3.org/Graphics/SVG/1.1/DTD/svg11.dtd">
<svg version="1.1" xmlns="http://www.w3.org/2000/svg" xmlns:xlink="http://www.w3.org/1999/xlink" x="0px" y="0px" width="179.5px"
	 height="170.5px" viewBox="0 0 179.5 170.5" enable-background="new 0 0 179.5 170.5" xml:space="preserve">
<g id="base" display="none">
	<polygon display="inline" fill="#414042" points="62.736,169.222 18.641,137.186 1.798,85.35 18.641,33.513 62.736,1.476 
		117.239,1.476 161.333,33.513 178.177,85.35 161.333,137.186 117.239,169.222 	"/>
	<circle display="inline" stroke="#282829" stroke-width="5" stroke-miterlimit="10" cx="89.553" cy="85.433" r="70.168"/>
	<g display="inline">
		<path fill="none" stroke="#FFFFFF" stroke-width="1.5" stroke-miterlimit="10" d="M51.453,32.78"/>
		<path fill="none" stroke="#FFFFFF" stroke-width="1.5" stroke-miterlimit="10" d="M128.227,138.446"/>
		
			<line fill="none" stroke="#FFFFFF" stroke-width="0.5" stroke-miterlimit="10" x1="134.544" y1="133.218" x2="45.133" y2="38.007"/>
		
			<line fill="none" stroke="#FFFFFF" stroke-width="0.5" stroke-miterlimit="10" x1="140.158" y1="127.24" x2="39.518" y2="43.985"/>
		
			<line fill="none" stroke="#FFFFFF" stroke-width="0.5" stroke-miterlimit="10" x1="144.979" y1="120.605" x2="34.697" y2="50.621"/>
		
			<line fill="none" stroke="#FFFFFF" stroke-width="0.5" stroke-miterlimit="10" x1="148.929" y1="113.419" x2="30.746" y2="57.809"/>
		<path fill="none" stroke="#FFFFFF" stroke-width="1.5" stroke-miterlimit="10" d="M27.727,65.434"/>
		<path fill="none" stroke="#FFFFFF" stroke-width="1.5" stroke-miterlimit="10" d="M151.949,105.793"/>
		
			<line fill="none" stroke="#FFFFFF" stroke-width="0.5" stroke-miterlimit="10" x1="121.304" y1="142.84" x2="58.377" y2="28.385"/>
		<line fill="none" stroke="#FFFFFF" stroke-width="0.5" stroke-miterlimit="10" x1="153.989" y1="97.85" x2="25.687" y2="73.378"/>
		
			<line fill="none" stroke="#FFFFFF" stroke-width="0.5" stroke-miterlimit="10" x1="155.016" y1="89.712" x2="24.659" y2="81.514"/>
		<line fill="none" stroke="#FFFFFF" stroke-width="0.5" stroke-miterlimit="10" x1="155.016" y1="81.51" x2="24.659" y2="89.715"/>
		<path fill="none" stroke="#FFFFFF" stroke-miterlimit="10" d="M27.727,105.794"/>
		<path fill="none" stroke="#FFFFFF" stroke-miterlimit="10" d="M151.949,65.429"/>
		
			<line fill="none" stroke="#FFFFFF" stroke-width="0.5" stroke-miterlimit="10" x1="153.989" y1="73.373" x2="25.687" y2="97.851"/>
		
			<line fill="none" stroke="#FFFFFF" stroke-width="0.5" stroke-miterlimit="10" x1="148.929" y1="57.804" x2="30.746" y2="113.42"/>
		
			<line fill="none" stroke="#FFFFFF" stroke-width="0.5" stroke-miterlimit="10" x1="144.979" y1="50.617" x2="34.697" y2="120.606"/>
		
			<line fill="none" stroke="#FFFFFF" stroke-width="0.5" stroke-miterlimit="10" x1="140.156" y1="43.982" x2="39.518" y2="127.242"/>
		
			<line fill="none" stroke="#FFFFFF" stroke-width="0.5" stroke-miterlimit="10" x1="134.541" y1="38.004" x2="45.131" y2="133.221"/>
		<path fill="none" stroke="#FFFFFF" stroke-width="0.5" stroke-miterlimit="10" d="M51.449,138.449"/>
		
			<line fill="none" stroke="#FFFFFF" stroke-width="0.5" stroke-miterlimit="10" x1="121.295" y1="28.384" x2="58.373" y2="142.845"/>
		
			<line fill="none" stroke="#FFFFFF" stroke-width="0.5" stroke-miterlimit="10" x1="113.875" y1="24.894" x2="65.793" y2="146.337"/>
		
			<line fill="none" stroke="#FFFFFF" stroke-width="0.5" stroke-miterlimit="10" x1="106.075" y1="22.359" x2="73.593" y2="148.872"/>
		
			<line fill="none" stroke="#FFFFFF" stroke-width="0.5" stroke-miterlimit="10" x1="98.019" y1="20.822" x2="81.648" y2="150.409"/>
		
			<line fill="none" stroke="#FFFFFF" stroke-width="0.5" stroke-miterlimit="10" x1="65.795" y1="24.896" x2="113.873" y2="146.341"/>
		<path fill="none" stroke="#FFFFFF" stroke-width="0.5" stroke-miterlimit="10" d="M89.833,150.924"/>
		<path fill="none" stroke="#FFFFFF" stroke-width="0.5" stroke-miterlimit="10" d="M89.835,20.309"/>
		
			<line fill="none" stroke="#FFFFFF" stroke-width="0.5" stroke-miterlimit="10" x1="98.027" y1="150.414" x2="81.662" y2="20.821"/>
		
			<line fill="none" stroke="#FFFFFF" stroke-width="0.5" stroke-miterlimit="10" x1="73.595" y1="22.362" x2="106.073" y2="148.875"/>
	</g>
	<circle display="inline" cx="89.663" cy="85.092" r="59.646"/>
	<g display="inline">
		
			<line fill="none" stroke="#FFFFFF" stroke-width="1.5" stroke-miterlimit="10" x1="128.181" y1="138.262" x2="51.407" y2="32.596"/>
		<path fill="none" stroke="#FFFFFF" stroke-width="1.5" stroke-miterlimit="10" d="M45.087,37.824"/>
		<path fill="none" stroke="#FFFFFF" stroke-width="1.5" stroke-miterlimit="10" d="M134.499,133.034"/>
		<path fill="none" stroke="#FFFFFF" stroke-width="1.5" stroke-miterlimit="10" d="M39.472,43.802"/>
		<path fill="none" stroke="#FFFFFF" stroke-width="1.5" stroke-miterlimit="10" d="M140.112,127.056"/>
		<path fill="none" stroke="#FFFFFF" stroke-width="1.5" stroke-miterlimit="10" d="M34.651,50.437"/>
		<path fill="none" stroke="#FFFFFF" stroke-width="1.5" stroke-miterlimit="10" d="M144.933,120.422"/>
		<path fill="none" stroke="#FFFFFF" stroke-width="1.5" stroke-miterlimit="10" d="M30.701,57.625"/>
		<path fill="none" stroke="#FFFFFF" stroke-width="1.5" stroke-miterlimit="10" d="M148.883,113.235"/>
		<line fill="none" stroke="#FFFFFF" stroke-width="1.5" stroke-miterlimit="10" x1="151.903" y1="105.61" x2="27.681" y2="65.25"/>
		<path fill="none" stroke="#FFFFFF" stroke-width="1.5" stroke-miterlimit="10" d="M58.332,28.202"/>
		<path fill="none" stroke="#FFFFFF" stroke-width="1.5" stroke-miterlimit="10" d="M121.258,142.656"/>
		<path fill="none" stroke="#FFFFFF" stroke-width="1.5" stroke-miterlimit="10" d="M25.642,73.194"/>
		<path fill="none" stroke="#FFFFFF" stroke-width="1.5" stroke-miterlimit="10" d="M153.944,97.666"/>
		<path fill="none" stroke="#FFFFFF" stroke-width="1.5" stroke-miterlimit="10" d="M24.614,81.331"/>
		<path fill="none" stroke="#FFFFFF" stroke-width="1.5" stroke-miterlimit="10" d="M154.971,89.528"/>
		<path fill="none" stroke="#FFFFFF" stroke-width="1.5" stroke-miterlimit="10" d="M24.614,89.531"/>
		<path fill="none" stroke="#FFFFFF" stroke-width="1.5" stroke-miterlimit="10" d="M154.971,81.327"/>
		
			<line fill="none" stroke="#FFFFFF" stroke-width="1.5" stroke-miterlimit="10" x1="151.903" y1="65.246" x2="27.681" y2="105.611"/>
		<path fill="none" stroke="#FFFFFF" stroke-width="1.5" stroke-miterlimit="10" d="M25.642,97.667"/>
		<path fill="none" stroke="#FFFFFF" stroke-width="1.5" stroke-miterlimit="10" d="M153.944,73.189"/>
		<path fill="none" stroke="#FFFFFF" stroke-width="1.5" stroke-miterlimit="10" d="M30.701,113.236"/>
		<path fill="none" stroke="#FFFFFF" stroke-width="1.5" stroke-miterlimit="10" d="M148.883,57.62"/>
		<path fill="none" stroke="#FFFFFF" stroke-width="1.5" stroke-miterlimit="10" d="M34.651,120.423"/>
		<path fill="none" stroke="#FFFFFF" stroke-width="1.5" stroke-miterlimit="10" d="M144.933,50.433"/>
		<path fill="none" stroke="#FFFFFF" stroke-width="1.5" stroke-miterlimit="10" d="M39.472,127.058"/>
		<path fill="none" stroke="#FFFFFF" stroke-width="1.5" stroke-miterlimit="10" d="M140.11,43.799"/>
		<path fill="none" stroke="#FFFFFF" stroke-width="1.5" stroke-miterlimit="10" d="M45.085,133.037"/>
		<path fill="none" stroke="#FFFFFF" stroke-width="1.5" stroke-miterlimit="10" d="M134.495,37.821"/>
		
			<line fill="none" stroke="#FFFFFF" stroke-width="1.5" stroke-miterlimit="10" x1="128.175" y1="32.594" x2="51.403" y2="138.266"/>
		<path fill="none" stroke="#FFFFFF" stroke-width="1.5" stroke-miterlimit="10" d="M58.327,142.661"/>
		<path fill="none" stroke="#FFFFFF" stroke-width="1.5" stroke-miterlimit="10" d="M121.25,28.201"/>
		<path fill="none" stroke="#FFFFFF" stroke-width="1.5" stroke-miterlimit="10" d="M65.748,146.154"/>
		<path fill="none" stroke="#FFFFFF" stroke-width="1.5" stroke-miterlimit="10" d="M113.829,24.71"/>
		<path fill="none" stroke="#FFFFFF" stroke-width="1.5" stroke-miterlimit="10" d="M73.547,148.688"/>
		<path fill="none" stroke="#FFFFFF" stroke-width="1.5" stroke-miterlimit="10" d="M106.029,22.175"/>
		<path fill="none" stroke="#FFFFFF" stroke-width="1.5" stroke-miterlimit="10" d="M81.603,150.225"/>
		<path fill="none" stroke="#FFFFFF" stroke-width="1.5" stroke-miterlimit="10" d="M97.974,20.639"/>
		<path fill="none" stroke="#FFFFFF" stroke-width="1.5" stroke-miterlimit="10" d="M113.827,146.158"/>
		<path fill="none" stroke="#FFFFFF" stroke-width="1.5" stroke-miterlimit="10" d="M65.75,24.713"/>
		<line fill="none" stroke="#FFFFFF" stroke-width="1.5" stroke-miterlimit="10" x1="89.79" y1="20.125" x2="89.788" y2="150.741"/>
		<path fill="none" stroke="#FFFFFF" stroke-width="1.5" stroke-miterlimit="10" d="M81.617,20.638"/>
		<path fill="none" stroke="#FFFFFF" stroke-width="1.5" stroke-miterlimit="10" d="M97.981,150.23"/>
		<path fill="none" stroke="#FFFFFF" stroke-width="1.5" stroke-miterlimit="10" d="M106.027,148.691"/>
		<path fill="none" stroke="#FFFFFF" stroke-width="1.5" stroke-miterlimit="10" d="M73.549,22.178"/>
	</g>
	<circle display="inline" cx="89.625" cy="85.04" r="57.706"/>
	<g display="inline">
		<circle cx="114.789" cy="162.526" r="3"/>
		<line fill="none" stroke="#383839" stroke-miterlimit="10" x1="112.74" y1="164.718" x2="116.837" y2="160.334"/>
		<line fill="none" stroke="#383839" stroke-miterlimit="10" x1="112.597" y1="160.478" x2="116.98" y2="164.575"/>
	</g>
	<g display="inline">
		<circle cx="64.73" cy="8.167" r="3"/>
		<line fill="none" stroke="#383839" stroke-miterlimit="10" x1="61.916" y1="7.128" x2="67.544" y2="9.206"/>
		<line fill="none" stroke="#383839" stroke-miterlimit="10" x1="65.769" y1="5.353" x2="63.691" y2="10.981"/>
	</g>
	<g display="inline">
		<circle cx="65.748" cy="162.526" r="3"/>
		<line fill="none" stroke="#383839" stroke-miterlimit="10" x1="64.405" y1="165.209" x2="67.09" y2="159.843"/>
		<line fill="none" stroke="#383839" stroke-miterlimit="10" x1="63.064" y1="161.184" x2="68.431" y2="163.869"/>
	</g>
	<g display="inline">
		<circle cx="114.899" cy="8.167" r="3"/>
		<line fill="none" stroke="#383839" stroke-miterlimit="10" x1="112.851" y1="10.359" x2="116.948" y2="5.975"/>
		<line fill="none" stroke="#383839" stroke-miterlimit="10" x1="112.707" y1="6.119" x2="117.091" y2="10.216"/>
	</g>
	<g display="inline">
		<circle cx="9.219" cy="85.073" r="3"/>
		<line fill="none" stroke="#383839" stroke-miterlimit="10" x1="6.425" y1="86.165" x2="12.013" y2="83.98"/>
		<line fill="none" stroke="#383839" stroke-miterlimit="10" x1="8.126" y1="82.279" x2="10.311" y2="87.867"/>
	</g>
	<g display="inline">
		<circle cx="170.926" cy="85.793" r="3"/>
		<line fill="none" stroke="#383839" stroke-miterlimit="10" x1="168.588" y1="83.913" x2="173.264" y2="87.673"/>
		<line fill="none" stroke="#383839" stroke-miterlimit="10" x1="172.806" y1="83.455" x2="169.046" y2="88.131"/>
	</g>
</g>
<g id="_x31_0_000_bottom" display="none">
	<path display="inline" fill="#FFF200" d="M111.608,113.421c-6.023,4.689-13.597,7.482-21.821,7.482
		c-8.333,0-15.996-2.866-22.057-7.667l21.894-28.159L111.608,113.421z"/>
	<circle display="inline" cx="89.591" cy="85.35" r="20.08"/>
	<polyline display="inline" fill="#FFFFFF" points="81.961,19.026 97.468,19.026 89.702,28.67 	"/>
	<path display="inline" d="M94.96,98.672l22.787,22.787l-2.933,0.684l-22.63-22.63l3.243,0.072 M89.34,99.583l-3.243-0.072
		l22.63,22.63l2.932-0.684L88.873,98.672 M83.253,99.583l-3.243-0.072l22.631,22.63l2.932-0.684L82.786,98.672 M77.167,99.583
		l-3.243-0.072l22.63,22.63l2.933-0.684L76.699,98.672 M71.08,99.583l-3.243-0.072l22.63,22.63l2.933-0.684L70.613,98.672
		 M64.994,99.583l-3.243-0.072l22.631,22.63l2.932-0.684L64.526,98.672 M101.514,99.583l-3.243-0.072l22.63,22.63l2.933-0.684
		l-22.787-22.787 M58.907,99.583l-3.243-0.072l22.631,22.63l2.932-0.684L58.439,98.672 M52.82,99.583l-3.243-0.072l22.63,22.63
		l2.933-0.684L52.353,98.672"/>
</g>
<g id="_x31_0_000_top">
	<polygon points="89.669,85.047 73.502,124.56 41,100.5 37.217,68.846 58.468,43.395 84.035,35.501 113.829,42.71 128.175,57.795 
		136.25,65.434 138.25,79.75 136.75,98.672 128.175,110.407 106.945,126.14 	"/>
</g>
<g id="text" display="none">
	<g display="inline">
		<text transform="matrix(1 0 0 1 85.2856 41.1675)" fill="#FFFFFF" font-family="'OldRoadSign'" font-size="12">0</text>
		<text transform="matrix(1 0 0 1 115.979 49.5537)" fill="#FFFFFF" font-family="'OldRoadSign'" font-size="12">1</text>
		<text transform="matrix(1 0 0 1 132.3257 74.0981)" fill="#FFFFFF" font-family="'OldRoadSign'" font-size="12">2</text>
		<text transform="matrix(1 0 0 1 132.6855 103.6333)" fill="#FFFFFF" font-family="'OldRoadSign'" font-size="12">3</text>
		<text transform="matrix(1 0 0 1 114.8989 126.9404)" fill="#FFFFFF" font-family="'OldRoadSign'" font-size="12">4</text>
		<text transform="matrix(1 0 0 1 85.6934 136.876)" fill="#FFFFFF" font-family="'OldRoadSign'" font-size="12">5</text>
		<text transform="matrix(1 0 0 1 56.4458 127.6606)" fill="#FFFFFF" font-family="'OldRoadSign'" font-size="12">6</text>
		<text transform="matrix(1 0 0 1 39.2192 106.8745)" fill="#FFFFFF" font-family="'OldRoadSign'" font-size="12">7</text>
		<text transform="matrix(1 0 0 1 38.499 74.0928)" fill="#FFFFFF" font-family="'OldRoadSign'" font-size="12">8</text>
		<text transform="matrix(1 0 0 1 56.8057 50.1997)" fill="#FFFFFF" font-family="'OldRoadSign'" font-size="12">9</text>
	</g>
	<text transform="matrix(1 0 0 1 52.9272 89.3652)" display="inline" fill="#FFFFFF" font-family="'OldRoadSign'" font-size="12">ALTt</text>
</g>
<g id="_x31_00s_hand" display="none">
	<polygon fill="#FFFFFF" points="86.773,74.168 92.534,74.168 95.148,52.898 89.627,45.846 84.035,53.007 	"/>
</g>
<g id="_x31_0s_hand" display="none">
	<polygon display="inline" fill="#FFFFFF" stroke="#000000" stroke-width="0.5" stroke-miterlimit="10" points="87.956,74.098 
		91.29,74.093 91.29,33.967 89.714,27.665 87.956,33.967 	"/>
</g>
</svg>
