<?xml version="1.0" encoding="utf-8"?>
<!-- Generator: Adobe Illustrator 15.0.0, SVG Export Plug-In . SVG Version: 6.00 Build 0)  -->
<!DOCTYPE svg PUBLIC "-//W3C//DTD SVG 1.1//EN" "http://www.w3.org/Graphics/SVG/1.1/DTD/svg11.dtd">
<svg version="1.1" id="Layer_1" xmlns="http://www.w3.org/2000/svg" xmlns:xlink="http://www.w3.org/1999/xlink" x="0px" y="0px"
	 width="135.008px" height="259px" viewBox="0 0 135.008 259" enable-background="new 0 0 135.008 259" xml:space="preserve">
<g id="Layer_2" display="none">
	<rect display="inline" fill="#424143" width="135.008" height="259"/>
	
		<rect x="10.209" y="31.393" display="inline" fill="#010101" stroke="#292829" stroke-width="2" stroke-miterlimit="10" width="114.589" height="194.261"/>
	<g display="inline">
		<path fill="#FFFFFF" d="M42.449,43.072c2.399,0.18,3.375,1.72,2.928,4.619c-0.025,0.47-0.195,0.942-0.508,1.418v0.119l0.667,1.006
			h-1.61l-0.158-0.22c-2.332,0.704-3.737-0.254-4.215-2.874C39.395,44.686,40.361,43.329,42.449,43.072z M42.449,44.409
			c-0.822,0.211-1.32,0.624-1.495,1.24c-0.257,0.734-0.233,1.445,0.069,2.131c0.203,0.608,0.568,0.989,1.094,1.141
			c0.688,0.153,0.825-0.011,0.409-0.493l-0.409-0.671h1.449l0.185,0.224l0.339-0.59l0.065-0.917
			C44.012,45.128,43.443,44.439,42.449,44.409z"/>
		<path fill="#FFFFFF" d="M46.652,43.088l1.279,0.008l-0.008,4.064c0.051,0.701,0.224,1.17,0.518,1.408
			c0.294,0.237,0.662,0.328,1.102,0.273c0.44-0.056,0.757-0.209,0.95-0.461c0.192-0.251,0.302-0.654,0.327-1.209v-4.076h1.31v4.199
			c0,0.521-0.051,0.933-0.154,1.232c-0.342,0.737-0.92,1.251-1.734,1.541c-0.658,0.236-1.351,0.198-2.081-0.115
			c-0.578-0.288-0.969-0.637-1.173-1.046c-0.204-0.41-0.314-0.793-0.329-1.15L46.652,43.088z"/>
		<path fill="#FFFFFF" d="M56.415,43.1h1.41l2.554,7.127h-1.333l-0.582-1.61l-2.659,0.012l-0.574,1.638h-1.295L56.415,43.1z
			 M57.101,44.968l-0.836,2.361h1.714L57.101,44.968z"/>
		<path fill="#FFFFFF" d="M61.347,43.088h1.229l3.325,4.73L65.897,43.1l1.306-0.004v7.146h-1.229l-3.329-4.608v4.608l-1.298-0.008
			V43.088z"/>
		<path fill="#FFFFFF" d="M74.223,43.092v1.306h-2.055v5.837h-1.344v-5.837h-2.08v-1.306H74.223z"/>
		<path fill="#FFFFFF" d="M75.34,43.088l1.282-0.004l-0.004,7.154l-1.282-0.004L75.34,43.088z"/>
		<path fill="#FFFFFF" d="M83.647,43.092v1.306h-2.055v5.837h-1.344v-5.837h-2.08v-1.306H83.647z"/>
		<path fill="#FFFFFF" d="M91.012,43.076l-2.393,4.203v2.971h-1.31v-3.048l-2.534-4.118l1.609-0.008l1.619,2.7l1.447-2.7H91.012z"/>
	</g>
	<g display="inline">
		<path fill="#FFFFFF" d="M29.646,11.066c2.195-0.074,3.617,0.677,4.267,2.254c0.521,1.847-0.172,3.216-2.078,4.107l3.357,4.52
			l-2.459,0.018l-3.04-4.425h-0.751v4.425l-2.007-0.006l-0.023-10.893H29.646z M28.941,13.032v2.677
			c2.704,0.199,3.705-0.558,3.005-2.271c-0.349-0.349-1.119-0.483-2.312-0.405H28.941z"/>
		<path fill="#FFFFFF" d="M37.581,11.066h6.303l0.006,1.983h-4.267v2.436l3.451,0.018v1.767h-3.421v2.724l4.801-0.012l0.012,1.983
			h-6.873L37.581,11.066z"/>
		<path fill="#FFFFFF" d="M50.281,11.084h2.148l3.891,10.857H54.29l-0.886-2.453l-4.05,0.018L48.479,22h-1.972L50.281,11.084z
			 M51.326,13.931l-1.273,3.598h2.612L51.326,13.931z"/>
		<path fill="#FFFFFF" d="M61.896,11.072c1.835-0.031,3.12,0.729,3.856,2.283l-1.579,0.815c-0.739-1.193-1.772-1.485-3.099-0.875
			c-1.17,0.701-1.598,2.203-1.285,4.508c0.191,1.061,0.776,1.782,1.755,2.166c1.06,0.25,1.976-0.121,2.747-1.115l1.579,0.763
			c-0.219,0.556-0.501,0.981-0.845,1.276c-0.344,0.296-0.716,0.55-1.115,0.764c-0.399,0.213-0.916,0.333-1.55,0.36
			c-3.686-0.312-5.127-2.87-4.325-7.671C58.593,12.488,59.88,11.396,61.896,11.072z"/>
		<path fill="#FFFFFF" d="M75.559,11.072v1.989H72.43v8.892h-2.048v-8.892h-3.169v-1.989H75.559z"/>
		<path fill="#FFFFFF" d="M81.005,11.084h2.147l3.892,10.857h-2.03l-0.887-2.453l-4.05,0.018L79.204,22h-1.973L81.005,11.084z
			 M82.049,13.931l-1.273,3.598h2.612L82.049,13.931z"/>
		<path fill="#FFFFFF" d="M88.518,11.066h1.871l5.065,7.207l-0.006-7.189l1.989-0.006v10.887h-1.871l-5.071-7.02v7.02l-1.978-0.012
			V11.066z"/>
		<path fill="#FFFFFF" d="M108.131,11.072v1.989h-3.128v8.892h-2.048v-8.892h-3.17v-1.989H108.131z"/>
	</g>
	<linearGradient id="SVGID_1_" gradientUnits="userSpaceOnUse" x1="18.8018" y1="138.8223" x2="67.5215" y2="138.8223">
		<stop  offset="0" style="stop-color:#C8C7BD"/>
		<stop  offset="0.1746" style="stop-color:#DDDCCD"/>
		<stop  offset="0.343" style="stop-color:#EBEBD8"/>
		<stop  offset="0.4847" style="stop-color:#F0F0DC"/>
		<stop  offset="0.639" style="stop-color:#ECEBD9"/>
		<stop  offset="0.8064" style="stop-color:#DFDECF"/>
		<stop  offset="0.9794" style="stop-color:#CBCAC0"/>
		<stop  offset="1" style="stop-color:#C8C7BE"/>
	</linearGradient>
	<rect x="18.802" y="62.065" display="inline" fill="url(#SVGID_1_)" width="48.72" height="153.515"/>
	<radialGradient id="SVGID_2_" cx="43.1616" cy="207.2607" r="18.2018" gradientUnits="userSpaceOnUse">
		<stop  offset="0" style="stop-color:#7A2624"/>
		<stop  offset="0.2893" style="stop-color:#772422"/>
		<stop  offset="0.59" style="stop-color:#6F1F1E"/>
		<stop  offset="0.8949" style="stop-color:#611616"/>
		<stop  offset="1" style="stop-color:#5C1212"/>
	</radialGradient>
	<rect x="18.802" y="198.941" display="inline" fill="url(#SVGID_2_)" width="48.72" height="16.639"/>
	<linearGradient id="SVGID_3_" gradientUnits="userSpaceOnUse" x1="18.8018" y1="188.7148" x2="67.5215" y2="188.7148">
		<stop  offset="0" style="stop-color:#CB992B"/>
		<stop  offset="0.5215" style="stop-color:#EAC374"/>
		<stop  offset="1" style="stop-color:#CB9832"/>
	</linearGradient>
	<rect x="18.802" y="177.201" display="inline" fill="url(#SVGID_3_)" width="48.72" height="23.027"/>
	<line display="inline" fill="none" x1="77.098" y1="62.065" x2="108.95" y2="62.065"/>
	<g display="inline">
		<line fill="none" stroke="#FFFFFF" stroke-miterlimit="10" x1="76.29" y1="215.58" x2="101.136" y2="215.58"/>
		<line fill="none" stroke="#FFFFFF" stroke-miterlimit="10" x1="76.29" y1="77.417" x2="101.136" y2="77.417"/>
		<line fill="none" stroke="#FFFFFF" stroke-miterlimit="10" x1="76.29" y1="200.229" x2="101.137" y2="200.229"/>
		<line fill="none" stroke="#FFFFFF" stroke-miterlimit="10" x1="76.29" y1="184.877" x2="101.137" y2="184.877"/>
		<line fill="none" stroke="#FFFFFF" stroke-miterlimit="10" x1="76.29" y1="169.526" x2="101.137" y2="169.526"/>
		<line fill="none" stroke="#FFFFFF" stroke-miterlimit="10" x1="76.29" y1="154.174" x2="101.137" y2="154.174"/>
		<line fill="none" stroke="#FFFFFF" stroke-miterlimit="10" x1="76.29" y1="138.823" x2="101.137" y2="138.823"/>
		<line fill="none" stroke="#FFFFFF" stroke-miterlimit="10" x1="76.29" y1="123.471" x2="101.137" y2="123.471"/>
		<line fill="none" stroke="#FFFFFF" stroke-miterlimit="10" x1="76.29" y1="108.12" x2="101.137" y2="108.12"/>
		<line fill="none" stroke="#FFFFFF" stroke-miterlimit="10" x1="76.29" y1="92.769" x2="101.137" y2="92.769"/>
		<line fill="none" stroke="#FFFFFF" stroke-miterlimit="10" x1="75.545" y1="85.091" x2="82.549" y2="85.091"/>
		<line fill="none" stroke="#FFFFFF" stroke-miterlimit="10" x1="75.545" y1="100.444" x2="82.549" y2="100.444"/>
		<line fill="none" stroke="#FFFFFF" stroke-miterlimit="10" x1="75.545" y1="115.795" x2="82.549" y2="115.795"/>
		<line fill="none" stroke="#FFFFFF" stroke-miterlimit="10" x1="75.252" y1="131.146" x2="82.256" y2="131.146"/>
		<line fill="none" stroke="#FFFFFF" stroke-miterlimit="10" x1="75.545" y1="146.498" x2="82.549" y2="146.498"/>
		<line fill="none" stroke="#FFFFFF" stroke-miterlimit="10" x1="75.545" y1="161.85" x2="82.549" y2="161.85"/>
		<line fill="none" stroke="#FFFFFF" stroke-miterlimit="10" x1="75.545" y1="177.201" x2="82.549" y2="177.201"/>
		<line fill="none" stroke="#FFFFFF" stroke-miterlimit="10" x1="75.545" y1="192.554" x2="82.549" y2="192.554"/>
		<line fill="none" stroke="#FFFFFF" stroke-miterlimit="10" x1="75.545" y1="207.904" x2="82.549" y2="207.904"/>
		<line fill="none" stroke="#FFFFFF" stroke-miterlimit="10" x1="76.662" y1="62.065" x2="101.508" y2="62.065"/>
		<line fill="none" stroke="#FFFFFF" stroke-miterlimit="10" x1="75.917" y1="69.74" x2="82.92" y2="69.74"/>
	</g>
	<g display="inline">
		<path fill="#FFFFFF" d="M103.667,59.216h1.016v5.325v0.139h-0.607h-0.062l-0.038-0.039c-0.004,0.015-0.017,0.027-0.038,0.039
			h-0.276L103.667,59.216z"/>
		<path fill="#FFFFFF" d="M108.549,59.249c0.236,0.038,0.516,0.151,0.834,0.338s0.545,0.441,0.68,0.764
			c0.134,0.323,0.216,0.621,0.246,0.894c0.03,0.273,0.047,0.569,0.05,0.89c0.003,0.319-0.035,0.639-0.114,0.956
			c-0.08,0.316-0.249,0.618-0.51,0.905c-0.625,0.643-1.421,0.839-2.385,0.587c-0.91-0.369-1.385-1.105-1.426-2.209
			c-0.011-0.035-0.018-0.181-0.023-0.434c-0.006-0.255,0.013-0.508,0.059-0.756c0.045-0.25,0.131-0.513,0.258-0.788
			c0.127-0.276,0.282-0.493,0.465-0.651c0.184-0.158,0.361-0.277,0.535-0.355c0.172-0.078,0.378-0.131,0.617-0.157
			C108.073,59.205,108.311,59.211,108.549,59.249z M107.936,60.222c-0.852,0.226-1.203,0.995-1.053,2.311
			c0.107,0.643,0.406,1.028,0.898,1.152c0.297,0.123,0.609,0.098,0.938-0.079c0.304-0.189,0.482-0.462,0.538-0.815
			c0.056-0.354,0.084-0.651,0.084-0.891s-0.053-0.564-0.157-0.976S108.665,60.279,107.936,60.222z"/>
		<path fill="#FFFFFF" d="M114.183,59.249c0.237,0.038,0.516,0.151,0.835,0.338c0.318,0.187,0.545,0.441,0.68,0.764
			c0.133,0.323,0.215,0.621,0.246,0.894c0.029,0.273,0.047,0.569,0.049,0.89c0.004,0.319-0.035,0.639-0.113,0.956
			c-0.08,0.316-0.25,0.618-0.51,0.905c-0.626,0.643-1.422,0.839-2.386,0.587c-0.909-0.369-1.385-1.105-1.426-2.209
			c-0.011-0.035-0.018-0.181-0.023-0.434c-0.006-0.255,0.013-0.508,0.059-0.756c0.045-0.25,0.131-0.513,0.259-0.788
			c0.127-0.276,0.281-0.493,0.465-0.651c0.183-0.158,0.36-0.277,0.534-0.355c0.173-0.078,0.378-0.131,0.617-0.157
			S113.945,59.211,114.183,59.249z M113.571,60.222c-0.853,0.226-1.204,0.995-1.053,2.311c0.107,0.643,0.406,1.028,0.897,1.152
			c0.298,0.123,0.61,0.098,0.938-0.079c0.304-0.189,0.482-0.462,0.539-0.815c0.055-0.354,0.084-0.651,0.084-0.891
			s-0.053-0.564-0.158-0.976C114.715,60.513,114.299,60.279,113.571,60.222z"/>
	</g>
	<g display="inline">
		<path fill="#FFFFFF" d="M105.299,74.508c1.131-0.012,1.838,0.573,2.121,1.753c0.027,0.115,0.036,0.281,0.025,0.5
			c-0.011,0.218-0.044,0.436-0.098,0.652c-0.055,0.218-0.115,0.414-0.178,0.592c-0.064,0.177-0.142,0.361-0.234,0.554
			c-0.092,0.194-0.188,0.371-0.288,0.533c-0.101,0.163-0.22,0.313-0.355,0.453c-0.136,0.141-0.298,0.28-0.485,0.421h-1.673
			c0.399-0.268,0.743-0.509,1.032-0.723c0.29-0.215,0.58-0.54,0.872-0.979c-0.128,0.02-0.276,0.027-0.446,0.026
			c-0.17-0.002-0.365-0.03-0.586-0.084c-0.222-0.053-0.492-0.209-0.813-0.468c-0.394-0.437-0.567-0.976-0.525-1.617
			c0.077-0.482,0.281-0.866,0.615-1.149C104.616,74.691,104.955,74.536,105.299,74.508z M105.358,75.462
			c-0.563,0.148-0.811,0.531-0.739,1.147c0.242,0.64,0.723,0.861,1.44,0.663c0.129-0.033,0.26-0.111,0.391-0.235
			c0.094-0.467-0.004-0.908-0.293-1.322C105.929,75.558,105.663,75.475,105.358,75.462z"/>
		<path fill="#FFFFFF" d="M111.302,74.551c0.237,0.038,0.516,0.151,0.835,0.338c0.318,0.187,0.545,0.441,0.68,0.764
			c0.133,0.323,0.215,0.621,0.246,0.894c0.029,0.273,0.047,0.569,0.049,0.89c0.004,0.319-0.035,0.639-0.113,0.955
			c-0.08,0.317-0.25,0.619-0.51,0.906c-0.627,0.643-1.422,0.838-2.386,0.587c-0.909-0.369-1.386-1.105-1.427-2.209
			c-0.01-0.035-0.018-0.181-0.023-0.435s0.014-0.507,0.059-0.756c0.046-0.25,0.131-0.512,0.259-0.787
			c0.128-0.276,0.282-0.493,0.466-0.651c0.182-0.159,0.359-0.277,0.533-0.355c0.173-0.078,0.379-0.131,0.618-0.157
			S111.064,74.513,111.302,74.551z M110.69,75.523c-0.854,0.226-1.205,0.995-1.054,2.31c0.107,0.644,0.407,1.028,0.897,1.153
			c0.299,0.123,0.611,0.098,0.939-0.079c0.304-0.19,0.482-0.462,0.539-0.815c0.055-0.354,0.084-0.651,0.084-0.891
			c0-0.24-0.053-0.565-0.158-0.976C111.833,75.814,111.417,75.581,110.69,75.523z"/>
	</g>
	<g display="inline">
		<path fill="#FFFFFF" d="M106.672,90.514c0.341,0.612,0.291,1.241-0.149,1.887c0.358,0.281,0.563,0.681,0.616,1.197
			c-0.113,1.055-0.643,1.608-1.588,1.661c-0.926,0.076-1.548-0.354-1.869-1.288c-0.086-0.581,0.096-1.092,0.543-1.531
			c-0.109-0.136-0.203-0.26-0.281-0.374c-0.241-0.575-0.191-1.099,0.149-1.569c0.201-0.322,0.507-0.541,0.915-0.654
			C105.676,89.752,106.231,89.976,106.672,90.514z M104.991,92.812c-0.318,0.343-0.453,0.638-0.404,0.887
			c0.049,0.25,0.175,0.448,0.377,0.597c0.203,0.147,0.485,0.158,0.85,0.03l0.138-0.07c0.265-0.223,0.359-0.467,0.284-0.732
			c-0.074-0.264-0.195-0.441-0.365-0.529C105.701,92.905,105.408,92.845,104.991,92.812z M105.252,90.72
			c-0.359,0.089-0.547,0.333-0.561,0.729c0.102,0.435,0.438,0.621,1.01,0.562c0.262-0.288,0.33-0.619,0.205-0.992
			C105.745,90.831,105.526,90.731,105.252,90.72z"/>
		<path fill="#FFFFFF" d="M110.982,89.843c0.237,0.038,0.517,0.151,0.835,0.338s0.545,0.441,0.68,0.764
			c0.134,0.323,0.216,0.621,0.246,0.894c0.03,0.273,0.047,0.569,0.049,0.89c0.004,0.319-0.035,0.639-0.113,0.956
			c-0.08,0.316-0.25,0.618-0.51,0.906c-0.626,0.642-1.421,0.838-2.385,0.587c-0.91-0.37-1.386-1.106-1.427-2.21
			c-0.01-0.035-0.018-0.181-0.023-0.434c-0.006-0.255,0.014-0.508,0.059-0.756c0.046-0.25,0.131-0.512,0.259-0.788
			c0.127-0.275,0.281-0.493,0.465-0.651c0.183-0.158,0.36-0.277,0.534-0.355c0.173-0.078,0.378-0.131,0.617-0.157
			S110.744,89.805,110.982,89.843z M110.37,90.815c-0.853,0.226-1.204,0.995-1.053,2.311c0.107,0.643,0.406,1.028,0.897,1.152
			c0.298,0.123,0.61,0.098,0.938-0.079c0.305-0.189,0.482-0.462,0.539-0.815c0.056-0.354,0.084-0.651,0.084-0.891
			s-0.053-0.564-0.158-0.976C111.514,91.106,111.098,90.873,110.37,90.815z"/>
	</g>
	<g display="inline">
		<path fill="#FFFFFF" d="M103.661,105.124h3.751l-2.585,5.432h-1.166l2.184-4.426h-2.184V105.124z"/>
		<path fill="#FFFFFF" d="M111.246,105.14c0.237,0.039,0.517,0.151,0.835,0.338s0.545,0.441,0.68,0.765
			c0.133,0.322,0.216,0.62,0.246,0.893c0.029,0.273,0.047,0.569,0.049,0.89c0.004,0.319-0.035,0.639-0.113,0.956
			c-0.08,0.316-0.25,0.618-0.51,0.906c-0.626,0.642-1.422,0.838-2.386,0.587c-0.909-0.37-1.385-1.106-1.426-2.209
			c-0.011-0.036-0.018-0.182-0.023-0.435c-0.006-0.255,0.013-0.507,0.059-0.756c0.045-0.25,0.131-0.512,0.259-0.788
			c0.127-0.275,0.281-0.493,0.465-0.651c0.183-0.158,0.36-0.277,0.534-0.355c0.173-0.077,0.378-0.131,0.617-0.157
			S111.007,105.102,111.246,105.14z M110.633,106.112c-0.853,0.226-1.204,0.996-1.053,2.311c0.107,0.644,0.406,1.028,0.897,1.152
			c0.298,0.123,0.61,0.098,0.938-0.078c0.304-0.19,0.482-0.463,0.539-0.816c0.056-0.354,0.084-0.651,0.084-0.891
			s-0.053-0.564-0.158-0.976C111.778,106.403,111.362,106.17,110.633,106.112z"/>
	</g>
	<g display="inline">
		<path fill="#FFFFFF" d="M105.193,120.402h1.67c-0.493,0.29-0.864,0.565-1.112,0.829s-0.485,0.613-0.71,1.049
			c1.439-0.2,2.233,0.376,2.38,1.731c-0.002,0.574-0.236,1.044-0.705,1.412c-0.541,0.467-1.197,0.556-1.969,0.265
			c-0.649-0.393-1.011-1.009-1.086-1.853c0.025-0.89,0.329-1.809,0.91-2.759c0.148-0.212,0.287-0.378,0.417-0.495
			C105.117,120.465,105.186,120.404,105.193,120.402z M104.656,123.593c-0.018,0.217-0.013,0.4,0.012,0.548
			c0.025,0.149,0.123,0.325,0.292,0.529c0.17,0.206,0.405,0.26,0.709,0.165c0.303-0.094,0.502-0.235,0.596-0.423
			c0.094-0.187,0.078-0.405-0.045-0.657c-0.125-0.251-0.354-0.39-0.689-0.417C105.196,123.312,104.905,123.396,104.656,123.593z"/>
		<path fill="#FFFFFF" d="M111.257,120.438c0.237,0.039,0.517,0.151,0.835,0.339c0.318,0.187,0.545,0.441,0.68,0.764
			c0.133,0.323,0.216,0.621,0.246,0.894c0.029,0.273,0.047,0.569,0.049,0.89c0.004,0.319-0.035,0.639-0.113,0.955
			c-0.08,0.317-0.25,0.619-0.51,0.906c-0.626,0.643-1.422,0.838-2.385,0.587c-0.91-0.37-1.386-1.105-1.427-2.209
			c-0.011-0.035-0.018-0.181-0.023-0.435c-0.006-0.255,0.013-0.507,0.059-0.756c0.045-0.25,0.131-0.512,0.259-0.787
			c0.127-0.276,0.281-0.493,0.465-0.651c0.183-0.159,0.36-0.277,0.534-0.356c0.173-0.077,0.378-0.13,0.617-0.157
			C110.782,120.396,111.019,120.401,111.257,120.438z M110.645,121.412c-0.853,0.226-1.204,0.995-1.053,2.31
			c0.107,0.644,0.406,1.028,0.897,1.153c0.298,0.123,0.61,0.097,0.938-0.079c0.305-0.19,0.482-0.462,0.539-0.815
			c0.056-0.354,0.084-0.651,0.084-0.892c0-0.239-0.053-0.564-0.158-0.975C111.79,121.703,111.374,121.47,110.645,121.412z"/>
	</g>
	<g display="inline">
		<path fill="#FFFFFF" d="M107.127,135.71v1.036h-1.984l-0.091,0.593c0.86-0.037,1.492,0.249,1.896,0.859
			c0.487,0.643,0.508,1.343,0.062,2.102c-0.382,0.56-0.935,0.846-1.661,0.86c-0.693-0.022-1.257-0.348-1.688-0.979l0.86-0.413
			c0.248,0.411,0.643,0.568,1.183,0.473c0.62-0.292,0.799-0.765,0.534-1.421c-0.058-0.156-0.146-0.271-0.267-0.346
			c-0.609-0.297-1.33-0.271-2.163,0.079l0.489-2.844H107.127z"/>
		<path fill="#FFFFFF" d="M111.181,135.734c0.237,0.039,0.516,0.151,0.835,0.338c0.318,0.188,0.545,0.441,0.68,0.765
			c0.133,0.322,0.215,0.621,0.246,0.894c0.029,0.273,0.047,0.569,0.049,0.89c0.004,0.319-0.035,0.639-0.113,0.955
			c-0.08,0.317-0.25,0.619-0.51,0.906c-0.626,0.642-1.422,0.838-2.386,0.587c-0.909-0.37-1.385-1.105-1.426-2.209
			c-0.011-0.035-0.019-0.181-0.024-0.435c-0.006-0.255,0.014-0.507,0.06-0.756c0.045-0.25,0.131-0.512,0.258-0.787
			c0.128-0.276,0.282-0.493,0.466-0.651c0.182-0.159,0.36-0.277,0.533-0.356c0.174-0.077,0.379-0.13,0.618-0.157
			C110.706,135.691,110.943,135.697,111.181,135.734z M110.569,136.708c-0.853,0.225-1.204,0.995-1.053,2.31
			c0.107,0.644,0.406,1.028,0.897,1.152c0.298,0.124,0.61,0.098,0.938-0.078c0.304-0.19,0.482-0.463,0.539-0.815
			c0.055-0.354,0.084-0.651,0.084-0.892c0-0.239-0.053-0.564-0.158-0.976C111.713,136.999,111.297,136.766,110.569,136.708z"/>
	</g>
	<g display="inline">
		<path fill="#FFFFFF" d="M106.661,151.017l0.979,0.006l0.009,3.438h0.613v0.93l-0.619-0.008l-0.003,1.076l-0.978-0.006v-1.068
			l-3.002,0.004L106.661,151.017z M106.667,152.83l-1.131,1.637h1.125L106.667,152.83z"/>
		<path fill="#FFFFFF" d="M111.551,151.031c0.236,0.039,0.516,0.151,0.834,0.338c0.318,0.188,0.545,0.441,0.68,0.765
			c0.134,0.323,0.217,0.621,0.246,0.894c0.03,0.273,0.047,0.569,0.05,0.89c0.003,0.319-0.035,0.639-0.114,0.955
			c-0.08,0.317-0.249,0.619-0.509,0.906c-0.626,0.643-1.422,0.838-2.386,0.587c-0.91-0.37-1.385-1.105-1.426-2.209
			c-0.011-0.035-0.018-0.181-0.023-0.435c-0.006-0.255,0.013-0.507,0.059-0.756c0.045-0.25,0.131-0.512,0.258-0.787
			c0.127-0.276,0.282-0.493,0.465-0.651c0.184-0.159,0.361-0.277,0.535-0.356c0.172-0.077,0.378-0.13,0.617-0.157
			C111.075,150.988,111.313,150.994,111.551,151.031z M110.939,152.005c-0.853,0.226-1.204,0.995-1.054,2.31
			c0.107,0.644,0.406,1.028,0.898,1.153c0.297,0.123,0.609,0.097,0.938-0.079c0.304-0.19,0.482-0.463,0.539-0.815
			c0.055-0.354,0.083-0.651,0.083-0.892c0-0.239-0.053-0.564-0.157-0.975C112.083,152.296,111.667,152.062,110.939,152.005z"/>
	</g>
	<g display="inline">
		<path fill="#FFFFFF" d="M107.5,166.296l-0.948,1.896c0.807,0.518,1.096,1.222,0.869,2.109c-0.035,0.151-0.084,0.293-0.146,0.427
			s-0.164,0.273-0.304,0.418c-0.141,0.146-0.333,0.293-0.577,0.44c-1.1,0.396-2,0.086-2.703-0.93l-0.029-0.08l0.898-0.413
			c0.137,0.268,0.354,0.439,0.651,0.513c0.313,0.136,0.615,0.083,0.907-0.158c0.461-0.511,0.441-1.003-0.059-1.479
			c-0.313-0.168-0.662-0.188-1.045-0.059l0.827-1.658h-1.755l-0.009-1.026H107.5z"/>
		<path fill="#FFFFFF" d="M111.354,166.328c0.237,0.039,0.516,0.151,0.835,0.339c0.318,0.187,0.545,0.44,0.68,0.764
			c0.134,0.323,0.216,0.621,0.246,0.894c0.03,0.273,0.048,0.569,0.05,0.89c0.004,0.319-0.035,0.639-0.114,0.955
			c-0.079,0.317-0.249,0.619-0.509,0.906c-0.627,0.643-1.422,0.838-2.387,0.587c-0.909-0.369-1.385-1.105-1.426-2.209
			c-0.01-0.035-0.018-0.181-0.023-0.435c-0.006-0.255,0.014-0.507,0.059-0.756c0.045-0.25,0.131-0.512,0.258-0.787
			c0.128-0.276,0.283-0.493,0.466-0.651c0.183-0.159,0.36-0.277,0.534-0.356c0.172-0.077,0.379-0.13,0.617-0.157
			C110.878,166.285,111.116,166.291,111.354,166.328z M110.743,167.302c-0.854,0.226-1.205,0.995-1.055,2.31
			c0.107,0.644,0.407,1.028,0.898,1.153c0.298,0.123,0.61,0.097,0.939-0.079c0.303-0.19,0.482-0.462,0.539-0.815
			c0.055-0.354,0.083-0.651,0.083-0.892c0-0.239-0.052-0.564-0.157-0.975C111.886,167.593,111.469,167.359,110.743,167.302z"/>
	</g>
	<g display="inline">
		<path fill="#FFFFFF" d="M104.114,182.268c0.729-0.786,1.615-0.901,2.658-0.347c0.191,0.173,0.297,0.305,0.316,0.397
			c0.617,0.881,0.517,1.74-0.299,2.576l-0.931,1.129h1.664l-0.009,1.055l-3.854-0.006l2.475-3.011
			c0.311-0.252,0.377-0.58,0.199-0.99c-0.203-0.395-0.553-0.541-1.051-0.437c-0.406,0.207-0.579,0.551-0.516,1.029l-0.954,0.221
			c-0.095-0.195-0.126-0.421-0.097-0.675C103.752,182.841,103.884,182.525,104.114,182.268z"/>
		<path fill="#FFFFFF" d="M111.36,181.641c0.237,0.039,0.516,0.151,0.835,0.338c0.318,0.187,0.545,0.441,0.68,0.765
			c0.134,0.322,0.216,0.621,0.246,0.894c0.03,0.273,0.048,0.568,0.05,0.89c0.004,0.319-0.035,0.638-0.114,0.955
			s-0.249,0.618-0.509,0.906c-0.627,0.642-1.422,0.838-2.387,0.587c-0.909-0.37-1.385-1.105-1.426-2.209
			c-0.01-0.035-0.018-0.181-0.023-0.435c-0.006-0.255,0.014-0.507,0.059-0.756c0.045-0.25,0.131-0.512,0.258-0.788
			c0.128-0.275,0.283-0.492,0.466-0.651c0.183-0.158,0.36-0.276,0.534-0.355c0.172-0.077,0.379-0.13,0.617-0.157
			C110.884,181.598,111.122,181.604,111.36,181.641z M110.749,182.614c-0.854,0.225-1.205,0.995-1.055,2.31
			c0.107,0.644,0.407,1.028,0.898,1.152c0.298,0.124,0.61,0.098,0.939-0.078c0.303-0.19,0.482-0.463,0.539-0.816
			c0.055-0.354,0.083-0.651,0.083-0.891s-0.052-0.564-0.157-0.976C111.892,182.905,111.475,182.671,110.749,182.614z"/>
	</g>
	<g display="inline">
		<path fill="#FFFFFF" d="M103.667,196.89h1.016v5.325v0.139h-0.607h-0.062l-0.038-0.039c-0.004,0.015-0.017,0.027-0.038,0.039
			h-0.276L103.667,196.89z"/>
		<path fill="#FFFFFF" d="M108.549,196.923c0.236,0.038,0.516,0.151,0.834,0.338s0.545,0.441,0.68,0.764
			c0.134,0.323,0.216,0.621,0.246,0.894c0.03,0.273,0.047,0.569,0.05,0.89c0.003,0.319-0.035,0.639-0.114,0.955
			c-0.08,0.317-0.249,0.619-0.51,0.906c-0.625,0.643-1.421,0.839-2.385,0.587c-0.91-0.369-1.385-1.105-1.426-2.209
			c-0.011-0.035-0.018-0.181-0.023-0.434c-0.006-0.255,0.013-0.508,0.059-0.757c0.045-0.25,0.131-0.512,0.258-0.787
			c0.127-0.276,0.282-0.493,0.465-0.651c0.184-0.158,0.361-0.277,0.535-0.355c0.172-0.078,0.378-0.131,0.617-0.157
			C108.073,196.879,108.311,196.885,108.549,196.923z M107.936,197.896c-0.852,0.226-1.203,0.995-1.053,2.31
			c0.107,0.644,0.406,1.028,0.898,1.153c0.297,0.123,0.609,0.098,0.938-0.079c0.304-0.189,0.482-0.462,0.538-0.815
			c0.056-0.354,0.084-0.651,0.084-0.891c0-0.24-0.053-0.565-0.157-0.976C109.081,198.187,108.665,197.953,107.936,197.896z"/>
	</g>
	<g display="inline">
		<path fill="#FFFFFF" d="M106.311,212.22c0.237,0.038,0.516,0.151,0.834,0.338c0.319,0.187,0.546,0.441,0.68,0.764
			c0.135,0.323,0.217,0.621,0.247,0.894c0.03,0.273,0.047,0.569,0.05,0.89c0.003,0.319-0.035,0.639-0.114,0.956
			c-0.08,0.316-0.249,0.618-0.51,0.905c-0.626,0.643-1.421,0.839-2.386,0.587c-0.91-0.369-1.385-1.105-1.426-2.209
			c-0.01-0.035-0.018-0.181-0.023-0.434c-0.006-0.255,0.014-0.508,0.059-0.756c0.045-0.25,0.131-0.513,0.258-0.788
			c0.127-0.276,0.283-0.493,0.466-0.651s0.36-0.277,0.534-0.355c0.172-0.078,0.379-0.131,0.617-0.157
			S106.073,212.182,106.311,212.22z M105.699,213.192c-0.853,0.226-1.204,0.995-1.054,2.311c0.107,0.643,0.407,1.028,0.898,1.152
			c0.297,0.123,0.61,0.098,0.939-0.079c0.303-0.189,0.482-0.462,0.538-0.815c0.056-0.354,0.083-0.651,0.083-0.891
			s-0.052-0.564-0.156-0.976C106.842,213.483,106.426,213.25,105.699,213.192z"/>
	</g>
	<g display="inline">
		<circle fill="#010101" cx="5.27" cy="16.536" r="2.476"/>
		<line fill="none" stroke="#383939" stroke-miterlimit="10" x1="5.829" y1="14.124" x2="4.711" y2="18.948"/>
		<path fill="none" stroke="#383939" stroke-miterlimit="10" d="M6.823,14.607"/>
	</g>
	<g display="inline">
		<circle fill="#010101" cx="129.657" cy="16.541" r="2.476"/>
		<line fill="none" stroke="#383939" stroke-miterlimit="10" x1="127.727" y1="14.989" x2="131.586" y2="18.092"/>
		<path fill="none" stroke="#383939" stroke-miterlimit="10" d="M128.104,18.47"/>
		<path fill="none" stroke="#383939" stroke-miterlimit="10" d="M131.208,14.611"/>
	</g>
	<g display="inline">
		<circle fill="#010101" cx="130.258" cy="242.234" r="2.476"/>
		<line fill="none" stroke="#383939" stroke-miterlimit="10" x1="127.973" y1="241.28" x2="132.542" y2="243.188"/>
		<path fill="none" stroke="#383939" stroke-miterlimit="10" d="M129.303,244.518"/>
		<path fill="none" stroke="#383939" stroke-miterlimit="10" d="M131.213,239.949"/>
	</g>
	<g display="inline">
		<circle fill="#010101" cx="6.06" cy="242.618" r="2.476"/>
		<line fill="none" stroke="#383939" stroke-miterlimit="10" x1="8.338" y1="241.647" x2="3.783" y2="243.589"/>
		<path fill="none" stroke="#383939" stroke-miterlimit="10" d="M5.09,240.341"/>
		<path fill="none" stroke="#383939" stroke-miterlimit="10" d="M7.03,244.896"/>
	</g>
	
		<radialGradient id="SVGID_4_" cx="96.7642" cy="242.668" r="19.8115" gradientTransform="matrix(1 0 0 0.6 0 97.0672)" gradientUnits="userSpaceOnUse">
		<stop  offset="0" style="stop-color:#51130D"/>
		<stop  offset="0.3169" style="stop-color:#4E130D"/>
		<stop  offset="0.6461" style="stop-color:#45130F"/>
		<stop  offset="0.98" style="stop-color:#361211"/>
		<stop  offset="1" style="stop-color:#351111"/>
	</radialGradient>
	<path display="inline" fill="url(#SVGID_4_)" stroke="#151515" stroke-width="2" stroke-miterlimit="10" d="M123.366,246.836
		c0,2.556-2.072,4.627-4.627,4.627H74.79c-2.555,0-4.627-2.071-4.627-4.627v-8.335c0-2.556,2.072-4.627,4.627-4.627h43.949
		c2.555,0,4.627,2.071,4.627,4.627V246.836z"/>
	
		<radialGradient id="SVGID_5_" cx="39.4106" cy="242.6191" r="19.8119" gradientTransform="matrix(1 0 0 0.6 0 97.0476)" gradientUnits="userSpaceOnUse">
		<stop  offset="0" style="stop-color:#51130D"/>
		<stop  offset="0.3169" style="stop-color:#4E130D"/>
		<stop  offset="0.6461" style="stop-color:#45130F"/>
		<stop  offset="0.98" style="stop-color:#361211"/>
		<stop  offset="1" style="stop-color:#351111"/>
	</radialGradient>
	<path display="inline" fill="url(#SVGID_5_)" stroke="#151515" stroke-width="2" stroke-miterlimit="10" d="M66.013,246.787
		c0,2.555-2.072,4.627-4.626,4.627h-43.95c-2.554,0-4.627-2.072-4.627-4.627v-8.334c0-2.557,2.073-4.628,4.627-4.628h43.95
		c2.554,0,4.626,2.071,4.626,4.628V246.787z"/>
</g>
<radialGradient id="SVGID_6_" cx="96.7642" cy="242.6191" r="19.8122" gradientTransform="matrix(1 0 0 0.6 0 97.0476)" gradientUnits="userSpaceOnUse">
	<stop  offset="0" style="stop-color:#F47A20"/>
	<stop  offset="0.2053" style="stop-color:#F07522"/>
	<stop  offset="0.4188" style="stop-color:#E66A25"/>
	<stop  offset="0.6359" style="stop-color:#D95729"/>
	<stop  offset="0.8542" style="stop-color:#CA3B2C"/>
	<stop  offset="1" style="stop-color:#BE1E2D"/>
</radialGradient>
<path display="none" fill="url(#SVGID_6_)" stroke="#151515" stroke-width="2" stroke-miterlimit="10" d="M123.367,246.787
	c0,2.555-2.072,4.627-4.627,4.627H74.788c-2.555,0-4.625-2.072-4.625-4.627v-8.334c0-2.557,2.07-4.628,4.625-4.628h43.952
	c2.555,0,4.627,2.071,4.627,4.628V246.787z"/>
<radialGradient id="SVGID_7_" cx="39.4111" cy="242.6191" r="19.8122" gradientTransform="matrix(1 0 0 0.6 0 97.0476)" gradientUnits="userSpaceOnUse">
	<stop  offset="0" style="stop-color:#F47A20"/>
	<stop  offset="0.2053" style="stop-color:#F07522"/>
	<stop  offset="0.4188" style="stop-color:#E66A25"/>
	<stop  offset="0.6359" style="stop-color:#D95729"/>
	<stop  offset="0.8542" style="stop-color:#CA3B2C"/>
	<stop  offset="1" style="stop-color:#BE1E2D"/>
</radialGradient>
<path display="none" fill="url(#SVGID_7_)" stroke="#151515" stroke-width="2" stroke-miterlimit="10" d="M66.014,246.787
	c0,2.555-2.072,4.627-4.626,4.627H17.435c-2.555,0-4.626-2.072-4.626-4.627v-8.334c0-2.557,2.072-4.628,4.626-4.628h43.952
	c2.554,0,4.626,2.071,4.626,4.628V246.787z"/>
<polygon points="19.093,206.953 34.172,206.953 56.733,215.164 34.172,221.774 19.093,221.774 "/>
<g display="none">
	<g display="inline">
		<path fill="#281F1F" d="M83.946,238.977c0.268,0.061,0.511,0.145,0.731,0.251c0.222,0.107,0.395,0.224,0.521,0.348
			c0.125,0.124,0.271,0.323,0.439,0.598l0.129,0.287c0.285,1.317-0.227,2.278-1.533,2.883l-0.416,0.051h-1.558v2.859h-1.306v-7.276
			H83.946z M82.259,240.275v1.819h1.479c0.104-0.018,0.209-0.061,0.313-0.129l0.152-0.13c0.098-0.067,0.166-0.163,0.208-0.286
			c0.204-0.521,0.041-0.936-0.49-1.247l-0.341-0.027H82.259z"/>
		<path fill="#281F1F" d="M89.229,238.988h1.436l2.601,7.257h-1.357l-0.592-1.64l-2.707,0.012l-0.584,1.667h-1.318L89.229,238.988z
			 M89.927,240.891l-0.852,2.405h1.746L89.927,240.891z"/>
		<path fill="#281F1F" d="M94.75,238.977h1.252l3.385,4.817l-0.004-4.806l1.329-0.004v7.276H99.46l-3.389-4.691v4.691l-1.322-0.008
			V238.977z"/>
		<path fill="#281F1F" d="M102.778,238.977l1.306-0.004l-0.004,7.284l-1.306-0.004L102.778,238.977z"/>
		<path fill="#281F1F" d="M108.755,238.98c1.227-0.021,2.085,0.488,2.577,1.526l-1.056,0.545c-0.494-0.798-1.185-0.992-2.07-0.584
			c-0.782,0.468-1.068,1.472-0.859,3.012c0.128,0.709,0.519,1.191,1.173,1.447c0.708,0.168,1.32-0.081,1.836-0.745l1.055,0.51
			c-0.146,0.372-0.335,0.656-0.564,0.854c-0.23,0.197-0.479,0.367-0.745,0.51c-0.268,0.143-0.612,0.223-1.036,0.241
			c-2.463-0.209-3.427-1.918-2.891-5.126C106.548,239.928,107.409,239.198,108.755,238.98z"/>
	</g>
</g>
<g display="none">
	<g display="inline">
		<path fill="#281F1F" d="M24.939,238.996c2.16,0.38,3.036,1.987,2.628,4.825c-0.235,0.829-0.636,1.464-1.202,1.906
			c-0.566,0.441-1.459,0.63-2.681,0.564h-1.612v-7.331h1.808L24.939,238.996z M23.41,240.33v4.75
			c0.628,0.055,1.196-0.015,1.705-0.21c0.508-0.194,0.876-0.598,1.102-1.21s0.275-1.157,0.147-1.638
			c-0.128-0.479-0.32-0.861-0.577-1.144s-0.48-0.443-0.672-0.482C24.922,240.357,24.354,240.335,23.41,240.33z"/>
		<path fill="#281F1F" d="M29.56,240.2c0.107-0.17,0.32-0.383,0.639-0.639c0.787-0.617,1.731-0.747,2.832-0.389
			c0.549,0.259,0.956,0.614,1.22,1.067c0.476,0.978,0.632,2.068,0.467,3.271c-0.165,1.295-0.892,2.179-2.181,2.652
			c-1.161,0.232-2.148-0.141-2.961-1.118c-0.175-0.235-0.314-0.608-0.416-1.118l-0.129-1.22l0.028-0.859
			c0.049-0.415,0.119-0.751,0.208-1.008C29.354,240.584,29.453,240.371,29.56,240.2z M31.756,240.212
			c-0.834,0.134-1.301,0.653-1.4,1.558c-0.097,0.549-0.133,0.967-0.109,1.253c0.023,0.287,0.074,0.581,0.153,0.885
			s0.349,0.604,0.812,0.902c0.494,0.23,1.013,0.196,1.557-0.103c0.442-0.496,0.678-0.995,0.708-1.496
			c0.03-0.501,0.028-0.92-0.006-1.257C33.418,240.874,32.847,240.294,31.756,240.212z"/>
		<path fill="#281F1F" d="M37.79,238.977h1.251l3.385,4.817l-0.004-4.806l1.33-0.004v7.276H42.5l-3.389-4.691v4.691l-1.322-0.008
			V238.977z"/>
		<path fill="#281F1F" d="M45.79,240.2c0.107-0.17,0.32-0.383,0.639-0.639c0.787-0.617,1.731-0.747,2.832-0.389
			c0.549,0.259,0.956,0.614,1.22,1.067c0.476,0.978,0.632,2.068,0.467,3.271c-0.165,1.295-0.892,2.179-2.181,2.652
			c-1.161,0.232-2.148-0.141-2.961-1.118c-0.175-0.235-0.314-0.608-0.416-1.118l-0.129-1.22l0.028-0.859
			c0.049-0.415,0.119-0.751,0.208-1.008C45.584,240.584,45.683,240.371,45.79,240.2z M47.986,240.212
			c-0.834,0.134-1.301,0.653-1.4,1.558c-0.097,0.549-0.133,0.967-0.109,1.253c0.023,0.287,0.074,0.581,0.153,0.885
			s0.349,0.604,0.812,0.902c0.494,0.23,1.013,0.196,1.557-0.103c0.442-0.496,0.678-0.995,0.708-1.496
			c0.03-0.501,0.028-0.92-0.006-1.257C49.648,240.874,49.077,240.294,47.986,240.212z"/>
		<path fill="#281F1F" d="M57.358,238.98v1.33h-2.09v5.942h-1.369v-5.942H51.78v-1.33H57.358z"/>
	</g>
</g>
<rect x="18.75" y="62.065" display="none" fill="none" stroke="#282828" stroke-width="2" stroke-miterlimit="10" width="48.72" height="153.515"/>
</svg>
