<?xml version="1.0" encoding="utf-8"?>
<!-- Generator: Adobe Illustrator 15.0.0, SVG Export Plug-In . SVG Version: 6.00 Build 0)  -->
<!DOCTYPE svg PUBLIC "-//W3C//DTD SVG 1.1//EN" "http://www.w3.org/Graphics/SVG/1.1/DTD/svg11.dtd">
<svg version="1.1" id="Layer_1" xmlns="http://www.w3.org/2000/svg" xmlns:xlink="http://www.w3.org/1999/xlink" x="0px" y="0px"
	 width="792px" height="612px" viewBox="0 0 792 612" enable-background="new 0 0 792 612" xml:space="preserve">
<polygon stroke="#000000" stroke-miterlimit="10" points="0,397.205 17.755,397.205 26.158,391.322 40.444,382.078 49.688,382.078 
	53.889,382.078 58.091,389.642 65.654,389.642 71.536,397.205 80.78,403.087 90.864,413.171 97.587,408.97 108.511,405.608 
	113.553,408.129 126.158,413.171 143.805,413.171 151.368,390.481 173.217,393.003 178.259,382.078 183.301,374.516 
	183.301,364.432 187.866,359.39 187.866,345.944 190.864,338.971 195.066,330.567 203.469,312.924 209.352,312.924 213.553,312.924 
	228.679,316.642 242.965,312.924 250.528,312.924 269.855,335.609 278.259,336.449 282.46,335.609 287.502,330.567 297.587,323.006 
	300.948,312.924 305.99,299.479 320.276,294.437 332.041,278.471 340.444,278.471 347.167,278.471 353.889,283.513 363.133,293.597 
	388.343,312.083 396.36,326.519 416.074,350.735 428.68,347.625 433.722,370.313 453.05,375.72 463.134,387.12 482.461,387.12 
	503.47,387.961 521.116,381.238 526.999,373.675 534.562,361.07 546.929,366.952 563.974,366.952 575.738,350.986 587.503,349.895 
	593.147,352.416 607.671,352.416 611.873,349.055 611.873,337.29 621.957,309.562 632.881,302 662.293,302 669.016,288.555 
	677.419,278.471 695.067,278.108 721.957,291.916 746.327,323.006 760.612,348.465 766.495,377.036 768.657,398.049 
	769.018,523.255 0.36,519.054 "/>
</svg>
